<?xml version="1.0" encoding="UTF-8" standalone="no"?>
<!-- Created with Inkscape (http://www.inkscape.org/) -->

<svg
   xmlns:dc="http://purl.org/dc/elements/1.1/"
   xmlns:cc="http://creativecommons.org/ns#"
   xmlns:rdf="http://www.w3.org/1999/02/22-rdf-syntax-ns#"
   xmlns:svg="http://www.w3.org/2000/svg"
   xmlns="http://www.w3.org/2000/svg"
   xmlns:sodipodi="http://sodipodi.sourceforge.net/DTD/sodipodi-0.dtd"
   xmlns:inkscape="http://www.inkscape.org/namespaces/inkscape"
   width="196.07997mm"
   height="67.929771mm"
   viewBox="0 0 694.77155 240.69604"
   id="svg2"
   version="1.1"
   inkscape:version="0.91 r13725"
   sodipodi:docname="Audi_2016.svg">
  <defs
     id="defs4" />
  <sodipodi:namedview
     id="base"
     pagecolor="#ffffff"
     bordercolor="#666666"
     borderopacity="1.0"
     inkscape:pageopacity="0.0"
     inkscape:pageshadow="2"
     inkscape:zoom="0.98994949"
     inkscape:cx="425.45753"
     inkscape:cy="117.53226"
     inkscape:document-units="px"
     inkscape:current-layer="layer1"
     showgrid="false"
     inkscape:window-width="1920"
     inkscape:window-height="1017"
     inkscape:window-x="-8"
     inkscape:window-y="-8"
     inkscape:window-maximized="1"
     fit-margin-top="0"
     fit-margin-left="0"
     fit-margin-right="0"
     fit-margin-bottom="0" />
  <metadata
     id="metadata7">
    <rdf:RDF>
      <cc:Work
         rdf:about="">
        <dc:format>image/svg+xml</dc:format>
        <dc:type
           rdf:resource="http://purl.org/dc/dcmitype/StillImage" />
        <dc:title></dc:title>
      </cc:Work>
    </rdf:RDF>
  </metadata>
  <g
     inkscape:label="Ebene 1"
     inkscape:groupmode="layer"
     id="layer1"
     transform="translate(-20.363447,-33.581809)">
    <path
       style="fill:#000000"
       d="M 126.38704,273.52779 C 99.99667,270.57249 75.108009,258.39067 55.703081,238.93131 35.055317,218.22563 23.442816,193.40313 20.820262,164.36694 18.739955,141.33437 23.835908,116.43976 34.655537,96.7792 47.301225,73.800463 68.020319,54.520428 91.168763,44.191133 130.29562,26.731947 175.62102,31.161874 209.94808,55.800163 l 6.32514,4.539876 4.10171,-3.073489 c 31.32264,-23.47075 73.43001,-30.00902 110.50611,-17.158975 10.02834,3.475688 24.03973,10.698469 31.26858,16.118755 l 5.5996,4.198647 5.5996,-4.198647 C 380.57767,50.806044 394.58906,43.583263 404.6174,40.107575 441.6935,27.25753 483.80086,33.7958 515.12351,57.26655 l 4.10171,3.073489 6.32514,-4.539876 c 47.39797,-34.019962 112.79945,-28.45212 154.245,13.131388 20.6524,20.721147 32.26054,45.535879 34.88282,74.569019 2.08028,23.03258 -3.01565,47.92718 -13.83528,67.58775 -12.64569,22.97873 -33.36478,42.25878 -56.51322,52.58806 -39.12686,17.4592 -84.45227,13.02927 -118.77932,-11.60902 l -6.32514,-4.53989 -4.10171,3.0735 c -31.32265,23.47074 -73.43001,30.00901 -110.50611,17.15897 -10.02834,-3.47569 -24.03973,-10.69846 -31.26858,-16.11875 l -5.5996,-4.19865 -5.5996,4.19865 c -7.22885,5.42029 -21.24024,12.64306 -31.26858,16.11875 -37.0761,12.85004 -79.18347,6.31177 -110.50611,-17.15897 l -4.10171,-3.0735 -6.32514,4.53989 c -23.69195,17.00492 -53.95128,24.77623 -83.56104,21.46043 z m 32.42916,-28.06333 c 11.62097,-2.49937 26.58275,-8.86467 34.55597,-14.70137 l 3.65168,-2.67317 -4.25852,-6.25406 c -8.87324,-13.03118 -15.21294,-28.22863 -18.60394,-44.5972 -1.73878,-8.39311 -2.02787,-11.71556 -2.02787,-23.3049 0,-11.58935 0.28909,-14.91178 2.02787,-23.30491 3.391,-16.36856 9.7307,-31.566018 18.60394,-44.5972 l 4.25852,-6.254044 -3.65168,-2.673183 C 188.7175,73.69702 175.76689,67.303261 169.24305,65.191792 145.57429,57.531289 120.39042,59.580029 98.195935,70.971559 88.5781,75.908017 82.061943,80.692731 74.4521,88.406291 66.949008,96.011642 62.636244,101.88662 58.075566,110.71486 c -7.798811,15.09642 -10.336235,25.70612 -10.336235,43.2189 0,17.51277 2.537424,28.12248 10.336235,43.2189 4.560678,8.82825 8.873442,14.70322 16.376534,22.30856 7.609843,7.71357 14.126,12.49828 23.743835,17.43473 10.772525,5.52911 18.451935,7.82251 33.597625,10.0337 4.34633,0.63454 21.61272,-0.30166 27.02264,-1.46519 z m 144.07513,1.11355 c 12.8772,-1.59605 25.67474,-5.95015 36.4075,-12.38688 10.07731,-6.04364 9.83634,-5.40695 4.79752,-12.67596 -11.40013,-16.44588 -19.09427,-38.93863 -20.27754,-59.27855 -1.2963,-22.28326 2.49343,-41.80352 11.88345,-61.20945 2.26102,-4.672771 6.03836,-11.276441 8.39409,-14.67482 5.03882,-7.269009 5.27979,-6.632313 -4.79752,-12.67596 -6.78784,-4.07086 -17.47302,-8.486672 -25.22856,-10.42608 -20.56708,-5.143163 -44.11715,-2.510623 -63.33344,7.079727 -5.90558,2.947332 -15.03525,8.763675 -15.05107,9.588772 -0.005,0.284732 1.86319,3.239004 4.15255,6.565051 8.58624,12.474345 14.83563,27.28278 18.36053,43.50677 1.51334,6.96548 1.76196,10.34388 1.76196,23.94313 0,13.59925 -0.24862,16.97766 -1.76196,23.94313 -3.5249,16.22398 -9.77429,31.03242 -18.36053,43.50677 -2.28936,3.32605 -4.15801,6.28032 -4.15255,6.56505 0.0149,0.77945 8.99838,6.56415 14.4369,9.29632 16.52177,8.30017 34.89017,11.54891 52.76867,9.33298 z m 158.69951,-1.12648 c 7.91241,-1.62454 16.3274,-4.49871 23.17077,-7.91405 5.90558,-2.94734 15.03525,-8.76368 15.05106,-9.58877 0.005,-0.28473 -1.86318,-3.239 -4.15254,-6.56505 -8.58624,-12.47435 -14.83563,-27.28279 -18.36053,-43.50677 -1.51334,-6.96547 -1.76196,-10.34388 -1.76196,-23.94313 0,-13.59925 0.24862,-16.97765 1.76196,-23.94313 3.5249,-16.22399 9.77429,-31.032425 18.36053,-43.50677 2.28936,-3.326047 4.15801,-6.280319 4.15254,-6.565051 -0.005,-0.284732 -2.17772,-1.95157 -4.82723,-3.704104 -29.83781,-19.736191 -68.45514,-20.728473 -98.78583,-2.538315 -10.07731,6.043647 -9.83634,5.406951 -4.79752,12.67596 20.40673,29.43883 26.01866,69.08014 14.81572,104.65464 -2.98967,9.49357 -9.40302,22.69979 -14.81572,30.50818 -5.03882,7.26901 -5.27979,6.63232 4.79752,12.67596 10.18105,6.10586 23.32993,10.70885 35.34409,12.3728 7.22945,1.00127 22.50724,0.43566 30.04714,-1.1124 z m 149.83763,0.38194 c 8.49108,-1.5576 17.68066,-4.73218 25.87403,-8.93832 25.34489,-13.01101 42.5985,-35.66249 49.16782,-64.55019 1.78943,-7.86877 1.78943,-28.95362 0,-36.82241 -3.00223,-13.2019 -9.37244,-27.55087 -16.34283,-36.812461 -4.67699,-6.214322 -13.54443,-15.117721 -19.69488,-19.77478 -6.66519,-5.046791 -19.67015,-11.649207 -27.82826,-14.127989 -18.53903,-5.63295 -38.1707,-5.499002 -56.34896,0.384472 -6.52384,2.111469 -19.47445,8.505228 -24.12912,11.912631 l -3.65168,2.673183 4.25852,6.254044 c 8.87324,13.031182 15.21293,28.22864 18.60394,44.5972 1.73877,8.39313 2.02787,11.71556 2.02787,23.30491 0,11.58934 -0.2891,14.91179 -2.02787,23.3049 -3.39117,16.36938 -9.73067,31.56597 -18.60514,44.59896 l -4.25972,6.25582 3.1794,2.30316 c 10.73237,7.77449 27.24041,14.25144 41.1996,16.16473 6.38312,0.87488 22.00979,0.47687 28.57728,-0.72786 z m -388.6299,-48.55528 c 14.15682,-26.85312 14.15682,-59.83575 0,-86.68887 -1.93036,-3.66156 -4.26223,-7.60108 -5.1819,-8.75448 l -1.67217,-2.097088 -4.03198,6.763568 c -17.3347,29.07869 -17.3347,65.78618 0,94.86487 l 4.03198,6.76357 1.67217,-2.09708 c 0.91967,-1.15341 3.25154,-5.09292 5.1819,-8.75449 z m 148.86779,4.76391 c 5.00151,-8.71069 8.23967,-16.42252 10.42796,-24.83462 4.98889,-19.17799 3.25915,-42.27419 -4.4716,-59.70655 -2.86672,-6.46429 -9.12044,-17.632295 -9.8735,-17.632295 -0.75306,0 -7.00678,11.168005 -9.8735,17.632295 -1.39486,3.14531 -3.40707,9.06689 -4.4716,13.1591 -4.9889,19.17799 -3.25915,42.27419 4.4716,59.70655 2.86672,6.46429 9.12044,17.63231 9.8735,17.63231 0.27328,0 2.03599,-2.68056 3.91714,-5.95679 z m 155.15672,-6.40096 c 14.05675,-27.48394 12.7943,-62.24728 -3.23716,-89.13982 l -4.03198,-6.763568 -1.67217,2.097088 c -0.91968,1.1534 -3.25154,5.09292 -5.1819,8.75448 -15.46987,29.34373 -13.956,65.51261 3.91332,93.4954 l 2.67923,4.1956 2.67901,-4.1956 c 1.47345,-2.30758 3.65669,-6.10719 4.85165,-8.44358 z"
       id="path3357"
       inkscape:connector-curvature="0" />
  </g>
</svg>
